<?xml version="1.0" encoding="utf-8"?><svg xmlns="http://www.w3.org/2000/svg" xmlns:xlink="http://www.w3.org/1999/xlink"><symbol viewBox="0 0 366.32 550" id="arrow_down" xmlns="http://www.w3.org/2000/svg"><path d="M366.32 211.7l-56.57-56.57-126.7 126.7L56.57 155.35 0 211.92l182.95 182.95.32-.31.09.09L366.32 211.7z"/></symbol><symbol viewBox="0 0 20 20" id="clock" xmlns="http://www.w3.org/2000/svg"><path d="M10 0C4.5 0 0 4.5 0 10s4.5 10 10 10 10-4.5 10-10S15.5 0 10 0zm0 18c-4.4 0-8-3.6-8-8s3.6-8 8-8 8 3.6 8 8-3.6 8-8 8zm.5-13H9v6l5.2 3.2.8-1.3-4.5-2.7V5z" fill="currentColor" fill-opacity=".9" fill-rule="evenodd"/></symbol><symbol viewBox="0 0 543.45 550" id="search" xmlns="http://www.w3.org/2000/svg"><path d="M317.12 4.91C195 7.75 98.42 110.77 101.32 235c1 44.63 12.51 82.45 35.36 116.91L0 488.59l56.57 56.57 134.7-134.7C228.92 438 277.7 456 327.6 454.8c122.08-2.8 218.68-105.86 215.79-230.09S439.2 2.06 317.12 4.91zM319 84.62a140.56 140.56 0 0 1 101.9 40.19 147.1 147.1 0 0 1 4.78 205.39 141 141 0 0 1-201.82 4.7 147.1 147.1 0 0 1-4.78-205.39A140.56 140.56 0 0 1 319 84.62z"/></symbol></svg>